<?xml version='1.0' encoding='iso-8859-1'?>
<svg version="1.1" xmlns="http://www.w3.org/2000/svg" viewBox="0 0 137.144 137.144" xmlns:xlink="http://www.w3.org/1999/xlink" enable-background="new 0 0 137.144 137.144">
  <g>
    <g>
      <path d="m109.716,27.429l-22.779,10.047-18.365-10.149 1.669,18.975-19.345,10.486 17.41,6.159-40.978,40.978 5.892,5.892 40.976-40.977 6.16,17.409 10.486-19.347 18.975,1.67-10.148-18.365 10.047-22.778zm-.001-27.429h-82.286c-15.149,0-27.429,12.28-27.429,27.429v82.286c0,15.149 12.28,27.429 27.429,27.429h82.286c15.149,0 27.429-12.28 27.429-27.429v-82.286c0-15.149-12.28-27.429-27.429-27.429zm13.715,102.858c0,11.361-9.21,20.572-20.571,20.572h-68.573c-11.362,0-20.572-9.21-20.572-20.572v-68.572c0-11.361 9.21-20.571 20.572-20.571h68.572c11.361,0 20.571,9.21 20.571,20.571v68.572z"/>
    </g>
  </g>
</svg>
